<svg width="24" height="24" viewBox="0 0 24 24" fill="none" xmlns="http://www.w3.org/2000/svg">
<path d="M10.7143 17.1428H13.2857V21.8571H10.7143V17.1428ZM0 22.7143H5.57143V23.5714H0V22.7143ZM6.42857 10.7143H17.5714V11.5714H6.42857V10.7143ZM5.57143 10.7143C5.3441 10.7143 5.12608 10.624 4.96534 10.4632C4.80459 10.3025 4.71429 10.0845 4.71429 9.85713H1.81543C1.7358 9.85688 1.65769 9.87895 1.58996 9.92084C1.52224 9.96273 1.46762 10.0228 1.43229 10.0941L0.693429 11.5714H5.57143V10.7143Z" fill="white" fill-opacity="0.6"/>
<path d="M16.7143 21.8571V12.4286H7.28572V21.8571H9.85715V16.7143C9.85715 16.6006 9.9023 16.4916 9.98267 16.4112C10.063 16.3309 10.1721 16.2857 10.2857 16.2857H13.7143C13.828 16.2857 13.937 16.3309 14.0173 16.4112C14.0977 16.4916 14.1429 16.6006 14.1429 16.7143V21.8571H16.7143ZM11.1429 14.5714C11.1429 14.6851 11.0977 14.7941 11.0173 14.8745C10.937 14.9548 10.828 15 10.7143 15C10.6006 15 10.4916 14.9548 10.4112 14.8745C10.3309 14.7941 10.2857 14.6851 10.2857 14.5714V13.7143C10.2857 13.6006 10.3309 13.4916 10.4112 13.4112C10.4916 13.3309 10.6006 13.2857 10.7143 13.2857C10.828 13.2857 10.937 13.3309 11.0173 13.4112C11.0977 13.4916 11.1429 13.6006 11.1429 13.7143V14.5714ZM13.7143 14.5714C13.7143 14.6851 13.6691 14.7941 13.5888 14.8745C13.5084 14.9548 13.3994 15 13.2857 15C13.1721 15 13.063 14.9548 12.9827 14.8745C12.9023 14.7941 12.8571 14.6851 12.8571 14.5714V13.7143C12.8571 13.6006 12.9023 13.4916 12.9827 13.4112C13.063 13.3309 13.1721 13.2857 13.2857 13.2857C13.3994 13.2857 13.5084 13.3309 13.5888 13.4112C13.6691 13.4916 13.7143 13.6006 13.7143 13.7143V14.5714ZM16.2339 6.55414C16.194 6.51429 16.1467 6.48269 16.0947 6.46114C16.0426 6.43959 15.9868 6.42853 15.9304 6.42857H7.68729C7.62447 6.42859 7.56243 6.44243 7.50555 6.46909C7.44867 6.49575 7.39835 6.53459 7.35815 6.58286L6.05786 8.14286H17.8226L16.2339 6.55414ZM17.5714 1.50343H17.577L12 0L6.42858 1.49657L12.0021 3L17.5714 1.50343ZM18.4286 11.5714H23.3066L22.5677 10.0941C22.5324 10.0228 22.4778 9.96274 22.41 9.92085C22.3423 9.87896 22.2642 9.85689 22.1846 9.85714H19.2857C19.2857 10.0845 19.1954 10.3025 19.0347 10.4632C18.8739 10.624 18.6559 10.7143 18.4286 10.7143V11.5714Z" fill="white" fill-opacity="0.6"/>
<path d="M11.7797 3.828L8.57143 2.96657V5.57143H15.4286V2.96657L12.2203 3.828C12.0759 3.86657 11.9241 3.86657 11.7797 3.828ZM5.57143 9H18.4286V9.85714H5.57143V9ZM6.42857 12.4286H0.428574V21.8571H6.42857V12.4286ZM2.57143 20.1429C2.57143 20.2565 2.52628 20.3655 2.44591 20.4459C2.36553 20.5263 2.25652 20.5714 2.14286 20.5714C2.0292 20.5714 1.92019 20.5263 1.83981 20.4459C1.75944 20.3655 1.71429 20.2565 1.71429 20.1429V19.2857C1.71429 19.172 1.75944 19.063 1.83981 18.9827C1.92019 18.9023 2.0292 18.8571 2.14286 18.8571C2.25652 18.8571 2.36553 18.9023 2.44591 18.9827C2.52628 19.063 2.57143 19.172 2.57143 19.2857V20.1429ZM2.57143 17.5714C2.57143 17.6851 2.52628 17.7941 2.44591 17.8745C2.36553 17.9548 2.25652 18 2.14286 18C2.0292 18 1.92019 17.9548 1.83981 17.8745C1.75944 17.7941 1.71429 17.6851 1.71429 17.5714V16.7143C1.71429 16.6006 1.75944 16.4916 1.83981 16.4112C1.92019 16.3309 2.0292 16.2857 2.14286 16.2857C2.25652 16.2857 2.36553 16.3309 2.44591 16.4112C2.52628 16.4916 2.57143 16.6006 2.57143 16.7143V17.5714ZM2.57143 15C2.57143 15.1137 2.52628 15.2227 2.44591 15.303C2.36553 15.3834 2.25652 15.4286 2.14286 15.4286C2.0292 15.4286 1.92019 15.3834 1.83981 15.303C1.75944 15.2227 1.71429 15.1137 1.71429 15V14.1429C1.71429 14.0292 1.75944 13.9202 1.83981 13.8398C1.92019 13.7594 2.0292 13.7143 2.14286 13.7143C2.25652 13.7143 2.36553 13.7594 2.44591 13.8398C2.52628 13.9202 2.57143 14.0292 2.57143 14.1429V15ZM5.14286 20.1429C5.14286 20.2565 5.09771 20.3655 5.01733 20.4459C4.93696 20.5263 4.82795 20.5714 4.71429 20.5714C4.60062 20.5714 4.49161 20.5263 4.41124 20.4459C4.33087 20.3655 4.28572 20.2565 4.28572 20.1429V19.2857C4.28572 19.172 4.33087 19.063 4.41124 18.9827C4.49161 18.9023 4.60062 18.8571 4.71429 18.8571C4.82795 18.8571 4.93696 18.9023 5.01733 18.9827C5.09771 19.063 5.14286 19.172 5.14286 19.2857V20.1429ZM5.14286 17.5714C5.14286 17.6851 5.09771 17.7941 5.01733 17.8745C4.93696 17.9548 4.82795 18 4.71429 18C4.60062 18 4.49161 17.9548 4.41124 17.8745C4.33087 17.7941 4.28572 17.6851 4.28572 17.5714V16.7143C4.28572 16.6006 4.33087 16.4916 4.41124 16.4112C4.49161 16.3309 4.60062 16.2857 4.71429 16.2857C4.82795 16.2857 4.93696 16.3309 5.01733 16.4112C5.09771 16.4916 5.14286 16.6006 5.14286 16.7143V17.5714ZM5.14286 15C5.14286 15.1137 5.09771 15.2227 5.01733 15.303C4.93696 15.3834 4.82795 15.4286 4.71429 15.4286C4.60062 15.4286 4.49161 15.3834 4.41124 15.303C4.33087 15.2227 4.28572 15.1137 4.28572 15V14.1429C4.28572 14.0292 4.33087 13.9202 4.41124 13.8398C4.49161 13.7594 4.60062 13.7143 4.71429 13.7143C4.82795 13.7143 4.93696 13.7594 5.01733 13.8398C5.09771 13.9202 5.14286 14.0292 5.14286 14.1429V15ZM18.4286 22.7143H24V23.5714H18.4286V22.7143ZM13.7143 22.7143H6.42857V24H17.5719L17.5714 22.7143H13.7143ZM23.5714 12.4286H17.5714V21.8571H23.5714V12.4286ZM19.7143 20.1429C19.7143 20.2565 19.6691 20.3655 19.5888 20.4459C19.5084 20.5263 19.3994 20.5714 19.2857 20.5714C19.1721 20.5714 19.063 20.5263 18.9827 20.4459C18.9023 20.3655 18.8571 20.2565 18.8571 20.1429V19.2857C18.8571 19.172 18.9023 19.063 18.9827 18.9827C19.063 18.9023 19.1721 18.8571 19.2857 18.8571C19.3994 18.8571 19.5084 18.9023 19.5888 18.9827C19.6691 19.063 19.7143 19.172 19.7143 19.2857V20.1429ZM19.7143 17.5714C19.7143 17.6851 19.6691 17.7941 19.5888 17.8745C19.5084 17.9548 19.3994 18 19.2857 18C19.1721 18 19.063 17.9548 18.9827 17.8745C18.9023 17.7941 18.8571 17.6851 18.8571 17.5714V16.7143C18.8571 16.6006 18.9023 16.4916 18.9827 16.4112C19.063 16.3309 19.1721 16.2857 19.2857 16.2857C19.3994 16.2857 19.5084 16.3309 19.5888 16.4112C19.6691 16.4916 19.7143 16.6006 19.7143 16.7143V17.5714ZM19.7143 15C19.7143 15.1137 19.6691 15.2227 19.5888 15.303C19.5084 15.3834 19.3994 15.4286 19.2857 15.4286C19.1721 15.4286 19.063 15.3834 18.9827 15.303C18.9023 15.2227 18.8571 15.1137 18.8571 15V14.1429C18.8571 14.0292 18.9023 13.9202 18.9827 13.8398C19.063 13.7594 19.1721 13.7143 19.2857 13.7143C19.3994 13.7143 19.5084 13.7594 19.5888 13.8398C19.6691 13.9202 19.7143 14.0292 19.7143 14.1429V15ZM22.2857 20.1429C22.2857 20.2565 22.2406 20.3655 22.1602 20.4459C22.0798 20.5263 21.9708 20.5714 21.8571 20.5714C21.7435 20.5714 21.6345 20.5263 21.5541 20.4459C21.4737 20.3655 21.4286 20.2565 21.4286 20.1429V19.2857C21.4286 19.172 21.4737 19.063 21.5541 18.9827C21.6345 18.9023 21.7435 18.8571 21.8571 18.8571C21.9708 18.8571 22.0798 18.9023 22.1602 18.9827C22.2406 19.063 22.2857 19.172 22.2857 19.2857V20.1429ZM22.2857 17.5714C22.2857 17.6851 22.2406 17.7941 22.1602 17.8745C22.0798 17.9548 21.9708 18 21.8571 18C21.7435 18 21.6345 17.9548 21.5541 17.8745C21.4737 17.7941 21.4286 17.6851 21.4286 17.5714V16.7143C21.4286 16.6006 21.4737 16.4916 21.5541 16.4112C21.6345 16.3309 21.7435 16.2857 21.8571 16.2857C21.9708 16.2857 22.0798 16.3309 22.1602 16.4112C22.2406 16.4916 22.2857 16.6006 22.2857 16.7143V17.5714ZM22.2857 15C22.2857 15.1137 22.2406 15.2227 22.1602 15.303C22.0798 15.3834 21.9708 15.4286 21.8571 15.4286C21.7435 15.4286 21.6345 15.3834 21.5541 15.303C21.4737 15.2227 21.4286 15.1137 21.4286 15V14.1429C21.4286 14.0292 21.4737 13.9202 21.5541 13.8398C21.6345 13.7594 21.7435 13.7143 21.8571 13.7143C21.9708 13.7143 22.0798 13.7594 22.1602 13.8398C22.2406 13.9202 22.2857 14.0292 22.2857 14.1429V15ZM17.6049 2.37428H16.7477V3.97585C16.7475 4.19253 16.8009 4.40591 16.9031 4.59696C17.0053 4.78801 17.1532 4.95081 17.3336 5.07085C17.4281 5.13394 17.5439 5.15687 17.6554 5.13461C17.7669 5.11234 17.8649 5.04671 17.928 4.95214C17.9911 4.85757 18.014 4.74182 17.9918 4.63034C17.9695 4.51886 17.9039 4.42079 17.8093 4.35771C17.7463 4.31589 17.6947 4.25913 17.659 4.19249C17.6234 4.12586 17.6048 4.05143 17.6049 3.97585V3.97285V2.37428Z" fill="white" fill-opacity="0.6"/>
</svg>
