<svg width="24" height="18" viewBox="0 0 24 18" fill="none" xmlns="http://www.w3.org/2000/svg">
<path d="M22.2996 13.0659C22.4769 12.9312 22.6167 12.7505 22.7048 12.5422C22.793 12.3338 22.8264 12.1051 22.8017 11.8792C22.7769 11.6532 22.6949 11.438 22.564 11.2553C22.433 11.0725 22.2577 10.9287 22.0558 10.8382V9.06143L21.0503 9.50291V10.8382C20.8482 10.9286 20.6728 11.0725 20.5418 11.2553C20.4107 11.4381 20.3287 11.6534 20.304 11.8794C20.2792 12.1054 20.3127 12.3342 20.4009 12.5426C20.4891 12.751 20.629 12.9317 20.8065 13.0664C20.6486 13.1862 20.5202 13.3426 20.4316 13.523C20.343 13.7034 20.2966 13.9028 20.2962 14.1052V15.4031C20.2962 15.5409 20.3491 15.673 20.4434 15.7704C20.5377 15.8678 20.6656 15.9225 20.7989 15.9225H22.3071C22.4405 15.9225 22.5683 15.8678 22.6626 15.7704C22.7569 15.673 22.8099 15.5409 22.8099 15.4031V14.1047C22.8095 13.9023 22.7631 13.7029 22.6745 13.5225C22.5858 13.3421 22.4574 13.1857 22.2996 13.0659ZM19.5421 10.1625V14.006C19.5448 14.4528 19.435 14.8926 19.2235 15.2824C19.0119 15.6721 18.7059 15.9983 18.3355 16.2289C16.4132 17.3888 14.2271 18 12.001 18C9.77491 18 7.58879 17.3888 5.66652 16.2289C5.2961 15.9983 4.99011 15.6721 4.77857 15.2824C4.56704 14.8926 4.45724 14.4528 4.45995 14.006V10.1625L10.6285 12.8581C11.0631 13.0467 11.5297 13.1438 12.001 13.1438C12.4723 13.1438 12.9389 13.0467 13.3735 12.8581L19.5421 10.1625Z" fill="white" fill-opacity="0.6"/>
<path d="M23.0793 4.61912L12.9803 0.204351C12.67 0.0694761 12.3367 0 12 0C11.6633 0 11.33 0.0694761 11.0197 0.204351L0.92067 4.61912C0.647703 4.7384 0.414804 4.93813 0.251064 5.19335C0.0873237 5.44858 0 5.74799 0 6.05418C0 6.36037 0.0873237 6.65978 0.251064 6.91501C0.414804 7.17023 0.647703 7.36996 0.92067 7.48924L11.0197 11.904C11.33 12.039 11.6633 12.1086 12 12.1086C12.3367 12.1086 12.67 12.039 12.9803 11.904L23.0793 7.48924C23.3523 7.36996 23.5852 7.17023 23.7489 6.91501C23.9127 6.65978 24 6.36037 24 6.05418C24 5.74799 23.9127 5.44858 23.7489 5.19335C23.5852 4.93813 23.3523 4.7384 23.0793 4.61912Z" fill="white" fill-opacity="0.6"/>
</svg>
