<svg width="25" height="19" viewBox="0 0 25 19" fill="none" xmlns="http://www.w3.org/2000/svg">
<path d="M22.6723 13.7304C22.8496 13.5957 22.9894 13.4151 23.0775 13.2067C23.1657 12.9984 23.1991 12.7697 23.1743 12.5437C23.1496 12.3178 23.0676 12.1026 22.9366 11.9198C22.8057 11.737 22.6304 11.5932 22.4284 11.5028V9.72598L21.423 10.1675V11.5028C21.2209 11.5932 21.0455 11.737 20.9144 11.9198C20.7834 12.1026 20.7014 12.3179 20.6766 12.5439C20.6519 12.77 20.6853 12.9988 20.7736 13.2072C20.8618 13.4156 21.0017 13.5963 21.1791 13.731C21.0213 13.8507 20.8929 14.0071 20.8043 14.1876C20.7156 14.368 20.6692 14.5674 20.6688 14.7697V16.0677C20.6688 16.2054 20.7218 16.3375 20.8161 16.4349C20.9104 16.5323 21.0383 16.5871 21.1716 16.5871H22.6798C22.8131 16.5871 22.941 16.5323 23.0353 16.4349C23.1296 16.3375 23.1825 16.2054 23.1825 16.0677V14.7692C23.1821 14.5669 23.1358 14.3675 23.0471 14.1871C22.9585 14.0066 22.8301 13.8502 22.6723 13.7304ZM19.9147 10.8271V14.6705C19.9175 15.1173 19.8076 15.5572 19.5961 15.9469C19.3846 16.3366 19.0786 16.6628 18.7082 16.8935C16.7859 18.0533 14.5998 18.6646 12.3737 18.6646C10.1476 18.6646 7.96146 18.0533 6.03918 16.8935C5.66877 16.6628 5.36277 16.3366 5.15124 15.9469C4.93971 15.5572 4.8299 15.1173 4.83261 14.6705V10.8271L11.0012 13.5227C11.4358 13.7112 11.9024 13.8084 12.3737 13.8084C12.845 13.8084 13.3116 13.7112 13.7462 13.5227L19.9147 10.8271Z" fill="#204461" fill-opacity="0.6"/>
<path d="M23.452 5.28367L13.353 0.868902C13.0427 0.734027 12.7094 0.664551 12.3727 0.664551C12.036 0.664551 11.7027 0.734027 11.3923 0.868902L1.29333 5.28367C1.02037 5.40295 0.78747 5.60268 0.623729 5.8579C0.459989 6.11313 0.372665 6.41254 0.372665 6.71873C0.372665 7.02493 0.459989 7.32433 0.623729 7.57956C0.78747 7.83478 1.02037 8.03451 1.29333 8.15379L11.3923 12.5686C11.7026 12.7036 12.036 12.7731 12.3727 12.7731C12.7094 12.7731 13.0427 12.7036 13.353 12.5686L23.452 8.15379C23.725 8.03451 23.9579 7.83478 24.1216 7.57956C24.2853 7.32433 24.3727 7.02493 24.3727 6.71873C24.3727 6.41254 24.2853 6.11313 24.1216 5.8579C23.9579 5.60268 23.725 5.40295 23.452 5.28367Z" fill="#204461" fill-opacity="0.6"/>
</svg>
