<?xml version="1.0" encoding="UTF-8"?>
<!-- Generated by Pixelmator Pro 2.4.5 -->
<svg width="128" height="128" viewBox="0 0 128 128" xmlns="http://www.w3.org/2000/svg" xmlns:xlink="http://www.w3.org/1999/xlink">
    <path id="path1" fill="#ffffff" stroke="none" d="M 63.623798 20.811005 L 66.219002 14.720001 C 68.130302 10.235504 73.314301 8.147751 77.800804 10.056702 C 82.285301 11.968002 84.373001 17.152 82.464005 21.638504 L 79.868805 27.7295 C 77.957504 32.214005 72.773499 34.301697 68.287003 32.3927 C 63.800301 30.4795 61.714802 25.295502 63.623798 20.811005 Z M 34.620762 119.172997 L 45.853802 119.305 L 52.651001 94.8965 L 39.740799 94.8965 L 34.620762 119.172997 Z"/>
    <path id="path2" fill="#00a9a6" stroke="none" d="M 28.000004 125.130997 C 28.000004 126.714996 29.2845 128 30.868999 128 L 43.448299 128 L 45.875801 119.305 L 34.620499 119.171997 L 29.279751 122.724998 C 28.885241 122.989998 28.562099 123.348 28.338894 123.767998 C 28.115688 124.188004 27.999294 124.655998 28.000004 125.130997 Z M 78.758499 119.171997 L 67.4813 119.171997 L 69.931 128 L 82.5103 128 C 84.094803 128 85.379303 126.714996 85.379303 125.130997 C 85.379906 124.655998 85.263504 124.188004 85.040298 123.767998 C 84.817001 123.348999 84.493805 122.989998 84.099304 122.724998 L 78.758499 119.171997 Z"/>
    <path id="path3" fill="#ffffff" stroke="none" d="M 73.373802 94.8965 L 60.728298 94.8965 L 67.4813 119.172997 L 78.758499 119.172997 L 73.373802 94.8965 Z M 44.021999 18.449799 L 63.310299 7.702248 L 59.006802 0 L 38.659302 11.0345 C 37.38773 11.721397 36.272362 12.664299 35.383522 13.803802 C 34.494671 14.943398 33.85165 16.254799 33.495022 17.655304 C 33.1577 19.035599 33.101101 20.469696 33.328579 21.872398 C 33.556061 23.275002 34.062981 24.617699 34.81926 25.820702 L 40.248299 36.060699 L 49.760002 28.866196 L 44.021999 18.449799 Z"/>
    <path id="path4" fill="#00a9a6" stroke="none" d="M 69.931 79.448303 L 43.448299 77.241501 L 39.740799 94.8965 L 52.651001 94.8965 L 54.4828 88.275803 L 58.8965 88.275803 L 60.728298 94.8965 L 73.373802 94.8965 L 69.931 79.448303 Z"/>
    <path id="path5" fill="#00a9a6" stroke="none" d="M 54.4827 37.517197 L 49.759998 28.910202 L 40.248199 36.104797 L 45.655197 46.344696 L 45.655197 61.792999 L 43.4482 77.241501 L 69.931 79.448303 L 76.551697 41.931 L 54.4827 37.517197 Z"/>
    <path id="path6" fill="#00a9a6" stroke="none" d="M 76.551796 41.931 L 74.697998 52.435699 L 81.164001 57.114502 L 87.0345 49.279999 L 76.551796 41.931 Z"/>
    <path id="path7" fill="#ffffff" stroke="none" d="M 94.7145 54.6427 L 87.0345 49.279999 L 81.1642 57.114502 L 87.586197 61.792999 L 71.806999 68.810997 L 69.931198 79.448196 L 92.772697 70.620796 C 97.482201 68.808998 99.830498 63.521194 98.016197 58.811699 C 97.360397 57.109695 96.210701 55.642502 94.714699 54.598801 L 94.714699 54.6427 L 94.7145 54.6427 Z"/>
</svg>
