<?xml version="1.0" encoding="UTF-8"?>
<!-- Generated by Pixelmator Pro 2.4.5 -->
<svg width="128" height="128" viewBox="0 0 128 128" xmlns="http://www.w3.org/2000/svg" xmlns:xlink="http://www.w3.org/1999/xlink">
    <radialGradient id="radialGradient1" cx="50.7938" cy="-0" r="94.357448" fx="50.7938" fy="-0" gradientUnits="userSpaceOnUse">
        <stop offset="1e-05" stop-color="#ffffff" stop-opacity="1"/>
        <stop offset="0.711548" stop-color="#ffffff" stop-opacity="1"/>
        <stop offset="1" stop-color="#f1dba3" stop-opacity="1"/>
    </radialGradient>
    <path id="path1" fill="url(#radialGradient1)" stroke="none" d="M 91.390999 42.396698 L 109.586403 6.597214 C 109.985703 5.905693 110.1959 5.121269 110.1959 4.322777 C 110.1959 3.524292 109.985703 2.739868 109.586403 2.048363 C 109.161797 1.403069 108.579903 0.876541 107.895401 0.51841 C 107.210999 0.160278 106.446701 -0.017654 105.6744 0.001373 L 81.656502 0.001373 C 80.816498 0.003922 79.993599 0.239021 79.278999 0.680618 C 78.5644 1.122223 77.986 1.753067 77.608002 2.503242 L 64.0979 29.068497 L 50.451401 2.503242 C 50.084099 1.7733 49.5271 1.155769 48.838699 0.715523 C 48.150299 0.275284 47.355999 0.028587 46.539398 0.001373 L 22.52145 0.001373 C 21.736401 -0.003204 20.96352 0.195488 20.278 0.578102 C 19.59248 0.960716 19.01766 1.514236 18.609438 2.184822 C 18.210194 2.876328 18.000008 3.660759 18.000008 4.459251 C 18.000008 5.257736 18.210194 6.04216 18.609438 6.733673 L 36.804798 42.533096 C 37.189098 43.274796 37.7701 43.8964 38.4842 44.329697 C 39.198399 44.762901 40.017998 44.991196 40.853298 44.989502 L 51.133701 44.989502 C 50.474098 47.001205 50.136398 49.104401 50.132999 51.221405 C 50.088001 52.069901 50.088001 52.920303 50.132999 53.768799 C 41.791698 57.033798 34.852699 63.109406 30.514399 70.946297 C 26.176189 78.783096 24.711201 87.889 26.372509 96.691101 C 28.0338 105.492996 32.717098 113.439003 39.6134 119.154999 C 46.509701 124.872002 55.185902 128 64.143394 128 C 73.100899 128 81.7771 124.872002 88.673401 119.154999 C 95.569702 113.439003 100.252998 105.492996 101.914299 96.691101 C 103.5756 87.889 102.110703 78.783096 97.7724 70.946297 C 93.434196 63.109406 86.495102 57.033798 78.1539 53.768799 C 78.276695 52.893997 78.352699 52.013306 78.381302 51.130402 C 78.481995 49.018005 78.267395 46.902298 77.744499 44.852997 L 87.706497 44.852997 C 88.478996 44.791397 89.223 44.533401 89.867798 44.1035 C 90.512703 43.673599 91.037003 43.086105 91.390999 42.396698 Z M 87.2061 83.336304 L 75.606499 94.662903 L 56.910801 80.9254 L 64.0979 103.032997 L 49.723598 110.584 L 73.5 100.5 L 59.139702 76.501404 L 56.910801 80.9254 L 66 92 L 75.952202 96.691101 L 87.2061 83.336304 Z M 69.238098 51.175903 L 69.238098 51.4944 C 67.537598 51.214996 65.820496 51.047897 64.0979 50.994003 C 62.438702 50.998795 60.781799 51.120399 59.139702 51.357895 C 59.118401 51.268204 59.118401 51.174698 59.139702 51.084999 C 59.079899 48.847801 59.7682 46.654701 61.095699 44.852997 L 67.464096 44.852997 C 68.775398 46.6605 69.447601 48.853104 69.374596 51.084999 L 69.238098 51.175903 Z"/>
    <path id="path2" fill="#d0af5b" stroke="none" d="M 53.779999 112 L 53.779999 111.040001 C 54.900002 110.879997 55.860001 110.699997 56.66 110.5 C 57.5 110.300003 58.18 110.019997 58.700001 109.660004 C 59.259998 109.260002 59.68 108.739998 59.959999 108.099998 C 60.240002 107.459999 60.400002 106.599998 60.439999 105.519997 C 60.48 104.68 60.5 103.419998 60.5 101.739998 C 60.5 100.059998 60.5 98.279999 60.5 96.400002 C 60.5 94.480003 60.5 92.660004 60.5 90.940002 C 60.5 89.18 60.5 87.82 60.5 86.860001 C 60.5 84.940002 60.5 82.900002 60.5 80.739998 C 60.5 78.540001 60.459999 76.599998 60.380001 74.919998 C 60.34 73.839996 60.18 72.980003 59.900002 72.339996 C 59.619999 71.699997 59.200001 71.199997 58.639999 70.839996 C 58.080002 70.440002 57.380001 70.139999 56.540001 69.940002 C 55.740002 69.739998 54.779999 69.559998 53.66 69.400002 L 53.66 68.440002 L 74.18 68.440002 L 74.18 69.459999 C 72.940002 69.580002 71.919998 69.760002 71.120003 70 C 70.32 70.199997 69.68 70.5 69.200005 70.900002 C 68.720001 71.300003 68.360001 71.82 68.120003 72.459999 C 67.880005 73.099998 67.740005 73.900002 67.700005 74.860001 C 67.660004 75.540001 67.620003 76.360001 67.580002 77.32 C 67.580002 78.279999 67.580002 79.400002 67.580002 80.68 L 67.520004 90.82 L 67.580002 99.639999 C 67.580002 100.919998 67.580002 102.120003 67.580002 103.239998 C 67.580002 104.360001 67.620003 105.260002 67.700005 105.940002 C 67.779999 106.779999 67.919998 107.5 68.120003 108.099998 C 68.32 108.660004 68.68 109.139999 69.200005 109.540001 C 69.720001 109.900002 70.419998 110.199997 71.300003 110.440002 C 72.18 110.68 73.340004 110.860001 74.779999 110.980003 L 74.779999 112 L 53.779999 112 Z M 63.619999 70.239998 L 61.580002 70.239998 L 61.580002 110.260002 L 63.619999 110.260002 L 63.619999 70.239998 Z"/>
</svg>
