<?xml version="1.0" encoding="UTF-8"?>
<!-- Generated by Pixelmator Pro 2.4.5 -->
<svg width="128" height="128" viewBox="0 0 128 128" xmlns="http://www.w3.org/2000/svg" xmlns:xlink="http://www.w3.org/1999/xlink">
    <path id="path1" fill="#ffffff" stroke="none" d="M 61.005798 44.362801 L 61.005798 5.807831 C 39.499901 5.807831 22.065701 23.069504 22.065701 44.362801 C 22.065701 65.656197 39.499901 82.917801 61.0061 82.917801 C 73.538597 82.917801 84.682899 77.052101 91.805298 67.946404 L 91.808998 67.949303 C 96.909302 61.429398 99.946404 53.248001 99.946404 44.362801 L 61.005798 44.362801 Z"/>
    <path id="path2" fill="#ffffff" stroke="none" d="M 99.946198 44.362801 L 61.005901 44.362801 L 91.8088 67.949303 C 96.909103 61.4291 99.946198 53.247696 99.946198 44.362801 Z"/>
    <path id="path3" fill="#00a9a6" stroke="none" d="M 101.110199 128 L 101.110199 74.074799 C 101.110199 73.8451 101.155899 73.617699 101.244598 73.405403 C 101.333397 73.193199 101.463501 73.000397 101.627602 72.837997 C 101.791603 72.675499 101.986397 72.5467 102.200699 72.458801 C 102.4151 72.370903 102.644798 72.325699 102.876801 72.325699 L 119.233002 72.325699 C 119.464996 72.325699 119.695 72.370903 119.910004 72.458801 C 120.124001 72.5467 120.319 72.675499 120.483002 72.837997 C 120.647003 73.000397 120.777 73.193199 120.865997 73.405403 C 120.954002 73.617699 121 73.8451 121 74.074799 L 121 128 L 101.110199 128 Z"/>
    <path id="path4" fill="#ffffff" stroke="none" d="M 69.732201 128 L 69.732201 91.596802 C 69.732201 91.367104 69.777901 91.139603 69.8666 90.927399 C 69.955399 90.715202 70.085503 90.5224 70.249603 90.359901 C 70.413605 90.197502 70.608398 90.068703 70.822701 89.980797 C 71.037102 89.892899 71.2668 89.847702 71.498802 89.847702 L 87.8554 89.847702 C 88.087402 89.847702 88.3172 89.892899 88.531502 89.980797 C 88.745903 90.068703 88.940598 90.197502 89.104698 90.359901 C 89.2687 90.5224 89.398804 90.715202 89.487602 90.927399 C 89.576401 91.139603 89.622002 91.367104 89.622002 91.596802 L 89.622002 128 L 69.732201 128 Z"/>
    <path id="path5" fill="#00a9a6" stroke="none" d="M 38.66 127.948997 L 38.66 98.929604 C 38.66 98.746399 38.706001 98.565102 38.795502 98.395897 C 38.885002 98.226799 39.016201 98.072998 39.181599 97.943497 C 39.347 97.814102 39.543301 97.711403 39.759399 97.641296 C 39.975498 97.571198 40.2071 97.535202 40.441002 97.535202 L 56.9305 97.535202 C 57.164398 97.535202 57.396 97.571198 57.612 97.641296 C 57.828098 97.711403 58.024502 97.814102 58.1898 97.943497 C 58.355202 98.072998 58.486401 98.226799 58.575901 98.395897 C 58.665401 98.565102 58.711399 98.746399 58.711399 98.929604 L 58.711399 127.948997 L 38.66 127.948997 Z"/>
    <path id="path6" fill="#ffffff" stroke="none" d="M 7 127.960999 L 7 105.577003 C 6.999965 105.347 7.045632 105.120003 7.134398 104.907997 C 7.223164 104.695 7.353289 104.501999 7.517336 104.339996 C 7.681383 104.178001 7.876142 104.049004 8.09049 103.960999 C 8.30483 103.873001 8.53456 103.828003 8.76656 103.828003 L 25.1229 103.828003 C 25.3549 103.828003 25.5847 103.873001 25.799 103.960999 C 26.013399 104.049004 26.208099 104.178001 26.3722 104.339996 C 26.5362 104.501999 26.6663 104.695 26.7551 104.907997 C 26.843901 105.120003 26.8895 105.347 26.8895 105.577003 L 26.8895 127.960999 L 7 127.960999 Z"/>
    <path id="path7" fill="#00a9a6" stroke="none" d="M 105.831902 36.030899 C 104.623901 16.773697 89.140297 1.346878 69.732201 0 L 69.732201 36.030899 L 105.831902 36.030899 Z"/>
</svg>
