<svg width="128" height="128" viewBox="0 0 128 128" fill="none" xmlns="http://www.w3.org/2000/svg">
<path d="M64.0001 96.7768H96.7765L104.959 88.5945C106.06 87.4935 107.913 87.6225 108.794 88.9065C109.182 89.4714 109.631 89.9918 110.133 90.4583C113.689 93.7673 119.309 93.7348 122.828 90.387C126.616 86.7843 126.672 80.785 122.998 77.1108C122.607 76.7197 122.183 76.3643 121.729 76.0488C120.436 75.1503 120.23 73.325 121.343 72.211L126.902 66.6518C128.366 65.1873 128.366 62.813 126.902 61.3485L121.344 55.79C120.23 54.6763 118.404 54.882 117.505 56.1755C117.189 56.6294 116.834 57.0541 116.443 57.4448C112.769 61.119 106.769 61.0625 103.167 57.275C99.8188 53.7556 99.7863 48.1358 103.095 44.5798C103.562 44.0778 104.082 43.6288 104.647 43.2408C105.931 42.3601 106.06 40.5068 104.959 39.4058L96.7768 31.2236H64.0001V96.7768Z" fill="#00A9A6"/>
<path d="M64.0001 31.2233H31.2233L23.0411 39.4056C21.9401 40.5066 20.0869 40.3776 19.2061 39.0936C18.8182 38.5287 18.3691 38.0083 17.8671 37.5418C14.3109 34.2328 8.69112 34.2653 5.17187 37.6131C1.38437 41.2158 1.32787 47.2151 5.00212 50.8893C5.39279 51.2803 5.81756 51.6357 6.27137 51.9513C7.56437 52.8498 7.77037 54.6751 6.65762 55.7891L1.09837 61.3483C-0.366125 62.8128 -0.366125 65.187 1.09837 66.6515L6.65662 72.21C7.77037 73.3238 9.59637 73.118 10.4954 71.8245C10.8109 71.3707 11.1663 70.946 11.5574 70.5553C15.2316 66.881 21.2309 66.9375 24.8336 70.725C28.1813 74.2445 28.2138 79.8643 24.9049 83.4203C24.4384 83.9222 23.918 84.3713 23.3531 84.7593C22.0691 85.64 21.9401 87.4933 23.0411 88.5943L31.2233 96.7765H64.0001V31.2233Z" fill="#00A9A6"/>
<path d="M88.5945 23.0414C87.4935 21.9404 87.6226 20.0871 88.9065 19.2064C89.4715 18.8184 89.9919 18.3694 90.4583 17.8674C93.7673 14.3114 93.7348 8.69162 90.387 5.17212C86.7843 1.38462 80.7851 1.32812 77.1108 5.00237C76.7198 5.39304 76.3644 5.81781 76.0488 6.27162C75.1503 7.56462 73.3251 7.77062 72.2111 6.65787L66.6518 1.09837C65.1873 -0.366125 62.8131 -0.366125 61.3486 1.09837L55.7901 6.65687C54.6763 7.77062 54.8821 9.59662 56.1756 10.4956C56.6294 10.8112 57.0542 11.1666 57.4448 11.5576C61.1191 15.2319 61.0626 21.2311 57.2751 24.8339C53.7556 28.1816 48.1358 28.2141 44.5798 24.9051C44.0779 24.4386 43.6288 23.9182 43.2408 23.3534C42.3601 22.0694 40.5068 21.9404 39.4058 23.0414L31.2236 31.2236L39.4058 39.4058C40.5068 40.5068 40.3778 42.3601 39.0938 43.2408C38.5289 43.6287 38.0085 44.0778 37.5421 44.5798C34.2331 48.1358 34.2656 53.7556 37.6133 57.2751C41.2161 61.0626 47.2153 61.1191 50.8896 57.4448C51.2806 57.0542 51.636 56.6294 51.9516 56.1756C52.8503 54.8823 54.6758 54.6766 55.7898 55.7896L64.0001 64.0001L72.2101 55.7901C73.3238 54.6763 73.1181 52.8503 71.8246 51.9513C71.3707 51.6358 70.9459 51.2804 70.5553 50.8893C66.8811 47.2151 66.9376 41.2158 70.7251 37.6131C74.2446 34.2653 79.8643 34.2328 83.4203 37.5418C83.9223 38.0083 84.3713 38.5287 84.7593 39.0936C85.64 40.3776 87.4933 40.5066 88.5943 39.4056L96.7765 31.2233L88.5945 23.0414Z" fill="white"/>
<path d="M39.4056 104.959C40.5066 106.06 40.3776 107.913 39.0936 108.794C38.5287 109.182 38.0083 109.631 37.5418 110.133C34.2329 113.689 34.2653 119.309 37.6131 122.828C41.2158 126.616 47.2151 126.672 50.8893 122.998C51.2804 122.607 51.6358 122.182 51.9513 121.729C52.8498 120.436 54.6751 120.23 55.7891 121.342L61.3483 126.901C62.8128 128.366 65.1871 128.366 66.6516 126.901L72.2101 121.343C73.3238 120.23 73.1181 118.404 71.8246 117.505C71.3708 117.189 70.946 116.834 70.5553 116.443C66.8811 112.768 66.9376 106.769 70.7251 103.166C74.2446 99.8185 79.8643 99.786 83.4203 103.095C83.9223 103.562 84.3713 104.082 84.7593 104.647C85.64 105.931 87.4933 106.06 88.5943 104.959L96.7765 96.7765L88.5943 88.5943C87.4933 87.4933 87.6223 85.64 88.9063 84.7593C89.4712 84.3714 89.9916 83.9223 90.458 83.4203C93.767 79.8643 93.7345 74.2445 90.3868 70.7251C86.784 66.9376 80.7848 66.8811 77.1106 70.5553C76.7195 70.946 76.3641 71.3707 76.0486 71.8246C75.1498 73.1178 73.3243 73.3236 72.2103 72.2106L64.0001 64.0001L55.7901 72.2101C54.6763 73.3238 54.8821 75.1498 56.1756 76.0488C56.6294 76.3643 57.0542 76.7197 57.4448 77.1108C61.1191 80.785 61.0626 86.7843 57.2751 90.387C53.7556 93.7348 48.1358 93.7673 44.5798 90.4583C44.0779 89.9918 43.6288 89.4714 43.2408 88.9065C42.3601 87.6225 40.5068 87.4935 39.4058 88.5945L31.2236 96.7768L39.4056 104.959Z" fill="white"/>
</svg>
