<svg width="128" height="128" viewBox="0 0 128 128" fill="none" xmlns="http://www.w3.org/2000/svg">
<path d="M116.75 24.5106H11.25C5.04675 24.5106 0 30.0084 0 36.766V58.5532H34.428C40.1785 47.1988 51.2778 39.4894 64 39.4894C76.7222 39.4894 87.8217 47.1988 93.572 58.5532H128V36.766C128 30.0084 122.953 24.5106 116.75 24.5106ZM30.25 76.2553C30.25 72.9595 30.6525 69.7646 31.4025 66.7234H0V85.7872H31.4025C30.6525 82.746 30.25 79.5512 30.25 76.2553ZM97.75 76.2553C97.75 79.5512 97.3475 82.746 96.5975 85.7872H128V66.7234H96.5975C97.3475 69.7646 97.75 72.9595 97.75 76.2553ZM64 113.021C51.2775 113.021 40.1783 105.312 34.428 93.9574H0V115.745C0 122.502 5.04675 128 11.25 128H116.75C122.953 128 128 122.502 128 115.745V93.9574H93.572C87.8217 105.312 76.7225 113.021 64 113.021Z" fill="black"/>
<path d="M116.75 24.5106H11.25C5.04675 24.5106 0 30.0084 0 36.766V58.5532H34.428C40.1785 47.1988 51.2778 39.4894 64 39.4894C76.7222 39.4894 87.8217 47.1988 93.572 58.5532H128V36.766C128 30.0084 122.953 24.5106 116.75 24.5106ZM30.25 76.2553C30.25 72.9595 30.6525 69.7646 31.4025 66.7234H0V85.7872H31.4025C30.6525 82.746 30.25 79.5512 30.25 76.2553ZM97.75 76.2553C97.75 79.5512 97.3475 82.746 96.5975 85.7872H128V66.7234H96.5975C97.3475 69.7646 97.75 72.9595 97.75 76.2553ZM64 113.021C51.2775 113.021 40.1783 105.312 34.428 93.9574H0V115.745C0 122.502 5.04675 128 11.25 128H116.75C122.953 128 128 122.502 128 115.745V93.9574H93.572C87.8217 105.312 76.7225 113.021 64 113.021Z" fill="url(#paint0_radial_5_115)"/>
<path d="M64 88.5106C70.2132 88.5106 75.25 83.0237 75.25 76.2553C75.25 69.4869 70.2132 64 64 64C57.7868 64 52.75 69.4869 52.75 76.2553C52.75 83.0237 57.7868 88.5106 64 88.5106Z" fill="black"/>
<path d="M64 88.5106C70.2132 88.5106 75.25 83.0237 75.25 76.2553C75.25 69.4869 70.2132 64 64 64C57.7868 64 52.75 69.4869 52.75 76.2553C52.75 83.0237 57.7868 88.5106 64 88.5106Z" fill="url(#paint1_radial_5_115)"/>
<path d="M64 104.851C78.4742 104.851 90.25 92.023 90.25 76.2553C90.25 60.4876 78.4742 47.6596 64 47.6596C49.5258 47.6596 37.75 60.4876 37.75 76.2553C37.75 92.023 49.5258 104.851 64 104.851ZM64 55.8298C74.3387 55.8298 82.75 64.9927 82.75 76.2553C82.75 87.518 74.3387 96.6809 64 96.6809C53.6613 96.6809 45.25 87.518 45.25 76.2553C45.25 64.9927 53.6613 55.8298 64 55.8298ZM85.9682 10.9021C85.3347 4.68698 80.5278 0 74.787 0H53.2127C47.472 0 42.6653 4.68698 42.0315 10.9021L41.477 16.3404H86.523L85.9682 10.9021ZM26.25 13.617C26.25 10.6087 24.0115 8.17021 21.25 8.17021H16.25C13.4885 8.17021 11.25 10.6087 11.25 13.617V16.3404H26.25V13.617Z" fill="black"/>
<path d="M64 104.851C78.4742 104.851 90.25 92.023 90.25 76.2553C90.25 60.4876 78.4742 47.6596 64 47.6596C49.5258 47.6596 37.75 60.4876 37.75 76.2553C37.75 92.023 49.5258 104.851 64 104.851ZM64 55.8298C74.3387 55.8298 82.75 64.9927 82.75 76.2553C82.75 87.518 74.3387 96.6809 64 96.6809C53.6613 96.6809 45.25 87.518 45.25 76.2553C45.25 64.9927 53.6613 55.8298 64 55.8298ZM85.9682 10.9021C85.3347 4.68698 80.5278 0 74.787 0H53.2127C47.472 0 42.6653 4.68698 42.0315 10.9021L41.477 16.3404H86.523L85.9682 10.9021ZM26.25 13.617C26.25 10.6087 24.0115 8.17021 21.25 8.17021H16.25C13.4885 8.17021 11.25 10.6087 11.25 13.617V16.3404H26.25V13.617Z" fill="url(#paint2_radial_5_115)"/>
<defs>
<radialGradient id="paint0_radial_5_115" cx="0" cy="0" r="1" gradientUnits="userSpaceOnUse" gradientTransform="translate(64 76.2553) rotate(90) scale(51.7447 64)">
<stop stop-color="#0097E8"/>
<stop offset="1" stop-color="#51B3E8"/>
</radialGradient>
<radialGradient id="paint1_radial_5_115" cx="0" cy="0" r="1" gradientUnits="userSpaceOnUse" gradientTransform="translate(64 76.2553) rotate(90) scale(12.2553 11.25)">
<stop stop-color="#0097E8"/>
<stop offset="1" stop-color="#51B3E8"/>
</radialGradient>
<radialGradient id="paint2_radial_5_115" cx="0" cy="0" r="1" gradientUnits="userSpaceOnUse" gradientTransform="translate(50.75 52.4255) rotate(90) scale(52.4255 39.5)">
<stop stop-color="#0097E8"/>
<stop offset="1" stop-color="#51B3E8"/>
</radialGradient>
</defs>
</svg>
