<svg width="128" height="128" viewBox="0 0 128 128" fill="none" xmlns="http://www.w3.org/2000/svg">
<path d="M45.5275 67.8323H14.6436C6.57338 67.8323 0 74.3999 0 82.4724V113.36C0 121.433 6.57338 128 14.6436 128H45.5272C53.5974 128 60.1708 121.433 60.1708 113.36V82.4724C60.1711 74.3999 53.5977 67.8323 45.5275 67.8323ZM40.205 108.036C39.8459 108.396 39.4195 108.681 38.9502 108.875C38.4808 109.07 37.9778 109.17 37.4697 109.169C36.44 109.169 35.4623 108.764 34.7342 108.036L30.0857 103.387L25.4372 108.036C23.9273 109.546 21.4756 109.546 19.966 108.036C18.4562 106.525 18.4559 104.077 19.966 102.567L24.6143 97.9176L19.966 93.2653C18.4583 91.7561 18.4567 89.3079 19.966 87.7992C21.4764 86.2895 23.9273 86.2887 25.4374 87.7992L30.0859 92.4487L34.7344 87.7992C36.2446 86.2887 38.6955 86.2895 40.2058 87.7992C41.7152 89.3079 41.7133 91.7561 40.2058 93.2653L35.5576 97.9176L40.2058 102.567C41.716 104.078 41.713 106.525 40.205 108.036ZM45.5275 0H14.6436C6.57365 0 0 6.5673 0 14.6406V45.5276C0 53.6009 6.57338 60.1682 14.6436 60.1682H45.5272C53.5974 60.1682 60.1708 53.6009 60.1708 45.5276V14.6406C60.1711 6.5673 53.5977 0 45.5275 0ZM40.5383 33.9521H33.9567V40.5301C33.9567 42.6646 32.2187 44.3969 30.0854 44.3969C27.9508 44.3969 26.2269 42.6633 26.2269 40.5301V33.9521H19.6455C17.5109 33.9521 15.7745 32.2212 15.7745 30.0853C15.7745 27.9497 17.5114 26.2188 19.6455 26.2188H26.2271V19.6411C26.2271 17.5068 27.9494 15.7743 30.0857 15.7743C32.2203 15.7743 33.9569 17.5049 33.9569 19.6411V26.2188H40.5386C42.6743 26.2188 44.3971 27.9513 44.3971 30.0853C44.3968 32.2196 42.6743 33.9521 40.5383 33.9521ZM113.357 0H82.4731C74.4028 0 67.8294 6.56757 67.8294 14.6409V45.5276C67.8294 53.6009 74.4028 60.1682 82.4731 60.1682H113.357C121.427 60.1682 128 53.6009 128 45.5276V14.6406C128 6.5673 121.427 0 113.357 0ZM108.355 33.9521H87.475C85.3403 33.9521 83.604 32.2215 83.604 30.0853C83.604 27.9497 85.3409 26.2188 87.475 26.2188H108.355C110.489 26.2188 112.226 27.9497 112.226 30.0853C112.226 32.2215 110.49 33.9521 108.355 33.9521ZM113.357 67.8323H82.4731C74.4028 67.8323 67.8294 74.3999 67.8294 82.4724V113.36C67.8294 121.433 74.4028 128 82.4731 128H113.357C121.427 128 128 121.433 128 113.36V82.4724C128 74.3999 121.427 67.8323 113.357 67.8323ZM108.355 108.606H87.475C85.3419 108.606 83.604 106.874 83.604 104.74C83.604 102.604 85.3406 100.873 87.475 100.873H108.355C110.49 100.873 112.226 102.604 112.226 104.74C112.226 106.874 110.488 108.606 108.355 108.606ZM108.355 94.9619H87.475C85.3403 94.9619 83.604 93.2313 83.604 91.0951C83.604 88.9592 85.3406 87.2283 87.475 87.2283H108.355C110.49 87.2283 112.226 88.9589 112.226 91.0951C112.226 93.2313 110.49 94.9619 108.355 94.9619Z" fill="url(#paint0_radial_5_81)"/>
<defs>
<radialGradient id="paint0_radial_5_81" cx="0" cy="0" r="1" gradientUnits="userSpaceOnUse" gradientTransform="translate(64 64) rotate(90) scale(64)">
<stop stop-color="#709600"/>
<stop offset="1" stop-color="#AAC657"/>
</radialGradient>
</defs>
</svg>
