<svg width="128" height="128" viewBox="0 0 128 128" fill="none" xmlns="http://www.w3.org/2000/svg">
<path d="M34.1326 27.7333V19.2C34.1326 18.6342 33.9078 18.0916 33.5078 17.6915C33.1077 17.2914 32.5651 17.0667 31.9993 17.0667H2.13329C1.5675 17.0667 1.02489 17.2914 0.624825 17.6915C0.224756 18.0916 0 18.6342 0 19.2L0 27.7333H34.1326ZM0 32V102.4H34.1326V32H0ZM25.5994 59.7333H8.53315C7.96737 59.7333 7.42476 59.5086 7.02469 59.1085C6.62462 58.7084 6.39986 58.1658 6.39986 57.6V40.5333C6.39986 39.9675 6.62462 39.4249 7.02469 39.0248C7.42476 38.6248 7.96737 38.4 8.53315 38.4H25.5994C26.1652 38.4 26.7078 38.6248 27.1079 39.0248C27.508 39.4249 27.7327 39.9675 27.7327 40.5333V57.6C27.7327 58.1658 27.508 58.7084 27.1079 59.1085C26.7078 59.5086 26.1652 59.7333 25.5994 59.7333ZM0 115.2V125.867C0 126.432 0.224756 126.975 0.624825 127.375C1.02489 127.775 1.5675 128 2.13329 128H31.9993C32.5651 128 33.1077 127.775 33.5078 127.375C33.9078 126.975 34.1326 126.432 34.1326 125.867V115.2H0ZM0 106.667H34.1326V110.933H0V106.667ZM38.3992 106.667H66.1319V110.933H38.3992V106.667ZM66.1319 8.53333V2.13333C66.1319 1.56754 65.9071 1.02492 65.5071 0.624839C65.107 0.224761 64.5644 0 63.9986 0H40.5325C39.9667 0 39.4241 0.224761 39.024 0.624839C38.6239 1.02492 38.3992 1.56754 38.3992 2.13333V8.53333H66.1319ZM38.3992 23.4667H66.1319V102.4H38.3992V23.4667ZM38.3992 115.2V125.867C38.3992 126.432 38.6239 126.975 39.024 127.375C39.4241 127.775 39.9667 128 40.5325 128H63.9986C64.5644 128 65.107 127.775 65.5071 127.375C65.9071 126.975 66.1319 126.432 66.1319 125.867V115.2H38.3992ZM38.3992 12.8H66.1319V19.2H38.3992V12.8ZM70.3475 44.1771L71.4889 48.5595L107.617 38.9248L106.475 34.5427L70.3475 44.1771ZM88.1752 112.519L124.302 102.884L122.015 94.1147L85.8856 103.749L88.1752 112.519ZM120.938 89.9864L108.696 43.0531L72.5662 52.6875L84.8086 99.6208L120.938 89.9864Z" fill="url(#paint0_radial_5_87)"/>
<path d="M69.2705 40.0491L105.397 30.4157L102.334 18.6664C102.183 18.1194 101.824 17.6531 101.334 17.3665C100.844 17.0798 100.261 16.9954 99.7103 17.1312L67.711 25.6645C67.1678 25.8131 66.7047 26.1691 66.4212 26.6557C66.1378 27.1424 66.0567 27.7208 66.1953 28.2667L69.2705 40.0491ZM125.38 107.012L89.25 116.647L91.7948 126.4C91.8679 126.672 91.9942 126.928 92.1664 127.151C92.3386 127.375 92.5532 127.562 92.798 127.702C93.1197 127.897 93.4885 128 93.8646 128C94.0513 128 94.2374 127.978 94.4187 127.937L126.418 119.403C126.961 119.254 127.424 118.898 127.708 118.411C127.991 117.925 128.072 117.346 127.934 116.8L125.38 107.012Z" fill="url(#paint1_radial_5_87)"/>
<defs>
<radialGradient id="paint0_radial_5_87" cx="0" cy="0" r="1" gradientUnits="userSpaceOnUse" gradientTransform="translate(62.1512 64) rotate(90) scale(64 62.1512)">
<stop stop-color="#CB6713"/>
<stop offset="1" stop-color="#E08538"/>
</radialGradient>
<radialGradient id="paint1_radial_5_87" cx="0" cy="0" r="1" gradientUnits="userSpaceOnUse" gradientTransform="translate(97.0646 72.5339) rotate(90) scale(55.4661 30.9354)">
<stop stop-color="#CB6713"/>
<stop offset="1" stop-color="#E08538"/>
</radialGradient>
</defs>
</svg>
