<svg width="128" height="128" viewBox="0 0 128 128" fill="none" xmlns="http://www.w3.org/2000/svg">
<path d="M92.7661 18.9112V6.94676C92.7661 3.12581 96.1688 0 100.327 0C104.486 0 107.888 3.12608 107.888 6.94676V18.9115C107.888 22.7324 104.486 25.8585 100.327 25.8585C96.1688 25.8582 92.7661 22.7322 92.7661 18.9112ZM64 25.8582C68.1587 25.8582 71.561 22.7322 71.561 18.9112V6.94676C71.561 3.12581 68.1587 0 64 0C59.8413 0 56.439 3.12608 56.439 6.94676V18.9115C56.439 22.7322 59.8416 25.8582 64 25.8582ZM27.6731 25.8582C31.8318 25.8582 35.2342 22.7322 35.2342 18.9112V6.94676C35.2342 3.12581 31.8318 0 27.6731 0C23.5145 0 20.1121 3.12608 20.1121 6.94676V18.9115C20.1121 22.7322 23.5145 25.8582 27.6731 25.8582ZM112.059 13.0593V18.9112C112.059 24.8471 106.788 29.6907 100.327 29.6907C93.8666 29.6907 88.595 24.8474 88.595 18.9112V12.929H75.7322V18.9112C75.7322 24.8474 70.4609 29.6907 64 29.6907C57.5391 29.6907 52.2678 24.8474 52.2678 18.9112V12.929H39.4053V18.9112C39.4053 24.8474 34.134 29.6907 27.6731 29.6907C21.2123 29.6907 15.9409 24.8474 15.9409 18.9112V13.0593C6.98622 14.0926 0.00029782 21.1614 0.00029782 29.6573V43.7819H128V29.6573C128 21.1614 121.014 14.0926 112.059 13.0593ZM0 47.6143H128V111.272C128 120.472 119.806 128 109.793 128H18.2068C8.19335 128 0 120.472 0 111.272V47.6143ZM89.575 79.3581H113.955V56.9581H89.575V79.3581ZM89.575 111.625H113.955V89.2246H89.575V111.625ZM52.5696 79.3581H76.9495V56.9581H52.5696V79.3581ZM52.5696 111.625H76.9495V89.2246H52.5696V111.625ZM15.5646 79.3581H39.9444V56.9581H15.5646V79.3581ZM15.5646 111.625H39.9444V89.2246H15.5646V111.625Z" fill="url(#paint0_radial_5_84)"/>
<defs>
<radialGradient id="paint0_radial_5_84" cx="0" cy="0" r="1" gradientUnits="userSpaceOnUse" gradientTransform="translate(64 64) rotate(90) scale(64)">
<stop stop-color="#AA387B"/>
<stop offset="1" stop-color="#B94589"/>
</radialGradient>
</defs>
</svg>
